<?xml version="1.0" encoding="UTF-8" standalone="no"?>
<!DOCTYPE svg PUBLIC "-//W3C//DTD SVG 1.1//EN"
 "http://www.w3.org/Graphics/SVG/1.1/DTD/svg11.dtd">
<!-- Generated by graphviz version 2.26.3 (20100126.1600)
 -->
<!-- Title: G Pages: 1 -->
<svg width="1100pt" height="116pt"
 viewBox="0.00 0.00 1100.00 116.00" xmlns="http://www.w3.org/2000/svg" xmlns:xlink="http://www.w3.org/1999/xlink">
<g id="graph1" class="graph" transform="scale(1 1) rotate(0) translate(4 112)">
<title>G</title>
<polygon fill="white" stroke="white" points="-4,5 -4,-112 1097,-112 1097,5 -4,5"/>
<!-- infra_update_center -->
<g id="node1" class="node"><title>infra_update_center</title>
<ellipse fill="none" stroke="black" cx="117" cy="-90" rx="87.7529" ry="18"/>
<text text-anchor="middle" x="117" y="-85.8" font-family="Times,serif" font-size="14.00">infra_update_center</text>
</g>
<!-- infra_update_center_mirror -->
<g id="node3" class="node"><title>infra_update_center_mirror</title>
<ellipse fill="none" stroke="black" cx="117" cy="-18" rx="117.248" ry="18"/>
<text text-anchor="middle" x="117" y="-13.8" font-family="Times,serif" font-size="14.00">infra_update_center_mirror</text>
</g>
<!-- infra_update_center&#45;&gt;infra_update_center_mirror -->
<g id="edge2" class="edge"><title>infra_update_center&#45;&gt;infra_update_center_mirror</title>
<path fill="none" stroke="black" d="M117,-71.8314C117,-64.131 117,-54.9743 117,-46.4166"/>
<polygon fill="black" stroke="black" points="120.5,-46.4132 117,-36.4133 113.5,-46.4133 120.5,-46.4132"/>
</g>
<!-- libs_htmlunit -->
<g id="node4" class="node"><title>libs_htmlunit</title>
<ellipse fill="none" stroke="black" cx="435" cy="-90" rx="62.0482" ry="18"/>
<text text-anchor="middle" x="435" y="-85.8" font-family="Times,serif" font-size="14.00">libs_htmlunit</text>
</g>
<!-- kohsuke_github_api -->
<g id="node6" class="node"><title>kohsuke_github_api</title>
<ellipse fill="none" stroke="black" cx="341" cy="-18" rx="88.859" ry="18"/>
<text text-anchor="middle" x="341" y="-13.8" font-family="Times,serif" font-size="14.00">kohsuke_github_api</text>
</g>
<!-- libs_htmlunit&#45;&gt;kohsuke_github_api -->
<g id="edge4" class="edge"><title>libs_htmlunit&#45;&gt;kohsuke_github_api</title>
<path fill="none" stroke="black" d="M412.723,-72.937C400.494,-63.57 385.143,-51.8119 371.784,-41.5796"/>
<polygon fill="black" stroke="black" points="373.837,-38.7429 363.77,-35.4407 369.58,-44.3001 373.837,-38.7429"/>
</g>
<!-- plugins_jswidgets -->
<g id="node8" class="node"><title>plugins_jswidgets</title>
<ellipse fill="none" stroke="black" cx="529" cy="-18" rx="80.779" ry="18"/>
<text text-anchor="middle" x="529" y="-13.8" font-family="Times,serif" font-size="14.00">plugins_jswidgets</text>
</g>
<!-- libs_htmlunit&#45;&gt;plugins_jswidgets -->
<g id="edge6" class="edge"><title>libs_htmlunit&#45;&gt;plugins_jswidgets</title>
<path fill="none" stroke="black" d="M457.277,-72.937C469.506,-63.57 484.857,-51.8119 498.216,-41.5796"/>
<polygon fill="black" stroke="black" points="500.42,-44.3001 506.23,-35.4407 496.163,-38.7429 500.42,-44.3001"/>
</g>
<!-- libs_jexl -->
<g id="node9" class="node"><title>libs_jexl</title>
<ellipse fill="none" stroke="black" cx="675" cy="-90" rx="43.8011" ry="18"/>
<text text-anchor="middle" x="675" y="-85.8" font-family="Times,serif" font-size="14.00">libs_jexl</text>
</g>
<!-- libs_jelly -->
<g id="node11" class="node"><title>libs_jelly</title>
<ellipse fill="none" stroke="black" cx="675" cy="-18" rx="46.9826" ry="18"/>
<text text-anchor="middle" x="675" y="-13.8" font-family="Times,serif" font-size="14.00">libs_jelly</text>
</g>
<!-- libs_jexl&#45;&gt;libs_jelly -->
<g id="edge8" class="edge"><title>libs_jexl&#45;&gt;libs_jelly</title>
<path fill="none" stroke="black" d="M675,-71.8314C675,-64.131 675,-54.9743 675,-46.4166"/>
<polygon fill="black" stroke="black" points="678.5,-46.4132 675,-36.4133 671.5,-46.4133 678.5,-46.4132"/>
</g>
<!-- libs_json_lib -->
<g id="node12" class="node"><title>libs_json_lib</title>
<ellipse fill="none" stroke="black" cx="821" cy="-90" rx="60.9368" ry="18"/>
<text text-anchor="middle" x="821" y="-85.8" font-family="Times,serif" font-size="14.00">libs_json_lib</text>
</g>
<!-- plugins_mercurial -->
<g id="node14" class="node"><title>plugins_mercurial</title>
<ellipse fill="none" stroke="black" cx="821" cy="-18" rx="80.8007" ry="18"/>
<text text-anchor="middle" x="821" y="-13.8" font-family="Times,serif" font-size="14.00">plugins_mercurial</text>
</g>
<!-- libs_json_lib&#45;&gt;plugins_mercurial -->
<g id="edge10" class="edge"><title>libs_json_lib&#45;&gt;plugins_mercurial</title>
<path fill="none" stroke="black" d="M821,-71.8314C821,-64.131 821,-54.9743 821,-46.4166"/>
<polygon fill="black" stroke="black" points="824.5,-46.4132 821,-36.4133 817.5,-46.4133 824.5,-46.4132"/>
</g>
<!-- libs_svnkit -->
<g id="node15" class="node"><title>libs_svnkit</title>
<ellipse fill="none" stroke="black" cx="1006" cy="-90" rx="52.9254" ry="18"/>
<text text-anchor="middle" x="1006" y="-85.8" font-family="Times,serif" font-size="14.00">libs_svnkit</text>
</g>
<!-- plugins_subversion -->
<g id="node17" class="node"><title>plugins_subversion</title>
<ellipse fill="none" stroke="black" cx="1006" cy="-18" rx="86.1405" ry="18"/>
<text text-anchor="middle" x="1006" y="-13.8" font-family="Times,serif" font-size="14.00">plugins_subversion</text>
</g>
<!-- libs_svnkit&#45;&gt;plugins_subversion -->
<g id="edge12" class="edge"><title>libs_svnkit&#45;&gt;plugins_subversion</title>
<path fill="none" stroke="black" d="M1006,-71.8314C1006,-64.131 1006,-54.9743 1006,-46.4166"/>
<polygon fill="black" stroke="black" points="1009.5,-46.4132 1006,-36.4133 1002.5,-46.4133 1009.5,-46.4132"/>
</g>
</g>
</svg>
